<svg xmlns="http://www.w3.org/2000/svg" xmlns:xlink="http://www.w3.org/1999/xlink" width="500" zoomAndPan="magnify" viewBox="0 0 375 97.5" height="130" preserveAspectRatio="xMidYMid meet" version="1.0"><path fill="#180f0a" d="M 66.355469 40.675781 C 64.285156 44.066406 61.585938 46.765625 58.144531 48.878906 C 61.484375 50.886719 64.148438 53.542969 66.363281 57.070312 C 68.40625 53.707031 71.042969 51.050781 74.515625 48.867188 C 71.183594 46.835938 68.492188 44.136719 66.355469 40.675781 Z M 66.355469 40.675781 " fill-opacity="1" fill-rule="nonzero"/><path fill="#180f0a" d="M 44.949219 7.613281 C 22.183594 7.613281 3.664062 26.128906 3.664062 48.886719 C 3.664062 71.652344 22.183594 90.167969 44.949219 90.167969 C 67.703125 90.167969 86.222656 71.652344 86.222656 48.886719 C 86.222656 26.128906 67.703125 7.613281 44.949219 7.613281 Z M 30.75 29.382812 L 30.75 15.304688 L 31.285156 15.089844 C 34.988281 13.589844 38.90625 12.71875 42.929688 12.5 L 43.847656 12.449219 L 43.847656 13.367188 C 43.839844 18.21875 42.125 22.441406 38.753906 25.921875 C 36.855469 27.878906 34.546875 29.320312 31.890625 30.203125 L 30.75 30.585938 Z M 43 85.289062 C 38.960938 85.082031 35.015625 84.207031 31.292969 82.691406 L 30.757812 82.476562 L 30.757812 67.167969 L 31.898438 67.558594 C 34.574219 68.457031 36.832031 69.878906 38.796875 71.886719 C 42.066406 75.226562 43.789062 79.449219 43.917969 84.421875 L 43.945312 85.359375 Z M 58.417969 82.769531 C 55.609375 83.894531 52.621094 84.664062 49.558594 85.054688 L 48.519531 85.183594 L 48.582031 84.144531 C 49.144531 74.457031 41.289062 64.417969 31.421875 62.230469 C 30.132812 61.941406 28.828125 61.796875 27.546875 61.796875 L 26.128906 61.796875 L 26.128906 80.148438 L 24.785156 79.257812 C 14.585938 72.472656 8.492188 61.121094 8.492188 48.886719 C 8.492188 36.652344 14.585938 25.296875 24.785156 18.523438 L 26.128906 17.632812 L 26.128906 36.019531 L 26.472656 36.019531 C 28.136719 36.019531 29.804688 35.828125 31.421875 35.464844 C 42.542969 32.914062 49.273438 22.132812 48.582031 13.660156 L 48.496094 12.597656 L 49.550781 12.734375 C 52.585938 13.125 55.554688 13.886719 58.359375 14.992188 L 58.949219 15.226562 L 58.90625 15.859375 C 58.394531 23.828125 55.210938 30.828125 49.445312 36.667969 C 43.285156 42.925781 35.4375 46.230469 26.128906 46.515625 L 26.128906 51.007812 C 45.476562 53.300781 56.515625 63.683594 58.957031 81.871094 L 59.042969 82.535156 Z M 64.769531 79.484375 L 63.636719 80.21875 L 63.445312 78.875 C 61.585938 65.949219 54.515625 56.386719 41.839844 49.628906 L 40.414062 48.867188 L 41.839844 48.105469 C 54.507812 41.324219 61.578125 31.761719 63.4375 18.894531 L 63.628906 17.554688 L 64.761719 18.289062 C 75.179688 25.054688 81.402344 36.488281 81.402344 48.886719 C 81.402344 61.285156 75.1875 72.722656 64.769531 79.484375 Z M 64.769531 79.484375 " fill-opacity="1" fill-rule="nonzero"/><path fill="#180f0a" d="M 124.90625 34.257812 L 140.0625 54.859375 L 131.4375 54.859375 L 120.742188 40.246094 L 110.472656 54.859375 L 109.25 54.859375 L 109.25 14.632812 L 116.160156 14.632812 L 116.160156 44.648438 L 137.246094 14.632812 L 138.710938 14.632812 Z M 124.90625 34.257812 " fill-opacity="1" fill-rule="nonzero"/><path fill="#180f0a" d="M 177.785156 54.859375 L 172.644531 43.183594 L 155.648438 43.183594 L 150.265625 54.859375 L 148.921875 54.859375 L 167.566406 14.257812 L 185.300781 54.859375 Z M 156.203125 41.953125 L 172.160156 41.953125 L 164.394531 24.15625 Z M 156.203125 41.953125 " fill-opacity="1" fill-rule="nonzero"/><path fill="#180f0a" d="M 204.265625 55.222656 L 186.53125 14.621094 L 194.117188 14.621094 L 207.496094 45.316406 L 221.554688 14.621094 L 222.898438 14.621094 Z M 204.265625 55.222656 " fill-opacity="1" fill-rule="nonzero"/><path fill="#180f0a" d="M 233.605469 14.621094 L 240.511719 14.621094 L 240.511719 54.847656 L 233.605469 54.847656 Z M 233.605469 14.621094 " fill-opacity="1" fill-rule="nonzero"/><path fill="#180f0a" d="M 281.355469 43.425781 C 281.355469 45.628906 280.78125 47.628906 279.609375 49.414062 C 278.445312 51.214844 276.800781 52.628906 274.660156 53.667969 C 272.519531 54.707031 270.003906 55.222656 267.105469 55.222656 C 264.378906 55.222656 261.703125 54.648438 259.097656 53.476562 C 256.492188 52.3125 254.589844 50.636719 253.410156 48.4375 L 254.148438 47.457031 C 255.25 49.578125 257.035156 51.191406 259.53125 52.3125 C 262.015625 53.433594 264.539062 54 267.113281 54 C 269.882812 54 272.074219 53.34375 273.691406 52.042969 C 275.296875 50.738281 276.105469 48.902344 276.105469 46.539062 C 276.105469 44.699219 275.277344 43.0625 273.628906 41.617188 C 271.984375 40.175781 269.398438 38.710938 265.894531 37.246094 C 262.832031 35.941406 260.4375 34.792969 258.710938 33.792969 C 256.976562 32.792969 255.652344 31.628906 254.742188 30.308594 C 253.824219 28.984375 253.371094 27.386719 253.371094 25.511719 C 253.371094 23.148438 253.984375 21.117188 255.238281 19.429688 C 256.480469 17.742188 258.148438 16.449219 260.21875 15.582031 C 262.296875 14.703125 264.558594 14.269531 267.003906 14.269531 C 269.769531 14.269531 272.386719 14.90625 274.832031 16.167969 C 277.273438 17.429688 279.03125 19.148438 280.09375 21.308594 L 279.296875 22.289062 C 278.273438 20.167969 276.609375 18.511719 274.285156 17.308594 C 271.960938 16.109375 269.578125 15.5 267.136719 15.5 C 264.277344 15.5 262.035156 16.078125 260.410156 17.21875 C 258.78125 18.359375 257.964844 20.027344 257.964844 22.226562 C 257.964844 23.492188 258.339844 24.582031 259.097656 25.5 C 259.855469 26.417969 260.875 27.226562 262.15625 27.914062 C 263.4375 28.609375 265.367188 29.539062 267.933594 30.722656 L 269.769531 31.578125 C 273.71875 33.378906 276.648438 35.144531 278.546875 36.902344 C 280.40625 38.640625 281.355469 40.8125 281.355469 43.425781 Z M 281.355469 43.425781 " fill-opacity="1" fill-rule="nonzero"/><path fill="#180f0a" d="M 317.007812 14.621094 L 323.914062 14.621094 L 323.914062 54.847656 L 317.007812 54.847656 L 317.007812 35.417969 L 299.949219 35.417969 L 299.949219 54.859375 L 293.039062 54.859375 L 293.039062 14.632812 L 299.949219 14.632812 L 299.949219 34.195312 L 317.007812 34.195312 Z M 317.007812 14.621094 " fill-opacity="1" fill-rule="nonzero"/><path fill="#180f0a" d="M 363.28125 54.859375 L 358.140625 43.183594 L 341.144531 43.183594 L 335.761719 54.859375 L 334.417969 54.859375 L 353.0625 14.257812 L 370.796875 54.859375 Z M 341.699219 41.953125 L 357.65625 41.953125 L 349.890625 24.15625 Z M 341.699219 41.953125 " fill-opacity="1" fill-rule="nonzero"/><path fill="#180f0a" d="M 172.625 75.59375 L 165.191406 75.59375 L 163.898438 78.472656 L 161.566406 78.472656 L 167.726562 64.746094 L 170.121094 64.746094 L 176.28125 78.472656 L 173.949219 78.472656 Z M 168.917969 67.070312 L 166.019531 73.605469 L 171.828125 73.605469 Z M 168.917969 67.070312 " fill-opacity="1" fill-rule="nonzero"/><path fill="#180f0a" d="M 191.761719 70.816406 L 195.660156 64.757812 L 198.308594 64.757812 L 198.308594 64.859375 L 192.855469 72.855469 L 192.855469 78.480469 L 190.664062 78.480469 L 190.664062 72.855469 L 185.371094 64.859375 L 185.371094 64.757812 L 187.976562 64.757812 Z M 191.761719 70.816406 " fill-opacity="1" fill-rule="nonzero"/><path fill="#180f0a" d="M 221.789062 64.777344 L 221.789062 72.796875 C 221.789062 74.746094 221.222656 76.238281 220.101562 77.28125 C 218.980469 78.320312 217.546875 78.804688 215.808594 78.746094 C 214.195312 78.703125 212.839844 78.167969 211.761719 77.136719 C 210.679688 76.109375 210.144531 74.664062 210.144531 72.804688 L 210.144531 64.785156 L 212.324219 64.785156 L 212.324219 72.804688 C 212.324219 74.019531 212.648438 74.96875 213.285156 75.652344 C 213.921875 76.332031 214.769531 76.695312 215.808594 76.734375 C 216.929688 76.796875 217.851562 76.480469 218.558594 75.785156 C 219.265625 75.089844 219.617188 74.097656 219.617188 72.816406 L 219.617188 64.796875 L 221.789062 64.796875 Z M 221.789062 64.777344 " fill-opacity="1" fill-rule="nonzero"/><path fill="#180f0a" d="M 246.683594 76.714844 C 245.308594 78.078125 243.59375 78.753906 241.523438 78.753906 C 240.320312 78.753906 239.25 78.5625 238.3125 78.167969 C 237.371094 77.773438 236.613281 77.25 236.039062 76.582031 C 235.464844 75.917969 235.027344 75.167969 234.734375 74.351562 C 234.441406 73.523438 234.292969 72.65625 234.292969 71.726562 C 234.292969 70.796875 234.441406 69.90625 234.746094 69.070312 C 235.050781 68.222656 235.484375 67.464844 236.058594 66.777344 C 236.636719 66.089844 237.390625 65.542969 238.339844 65.140625 C 239.292969 64.738281 240.351562 64.535156 241.53125 64.535156 C 243.492188 64.535156 245.167969 65.230469 246.550781 66.613281 L 245.078125 68.027344 C 244.128906 67.089844 242.9375 66.613281 241.53125 66.613281 C 239.898438 66.613281 238.644531 67.121094 237.765625 68.128906 C 236.886719 69.140625 236.464844 70.332031 236.472656 71.714844 C 236.484375 73.097656 236.917969 74.28125 237.765625 75.25 C 238.613281 76.21875 239.867188 76.714844 241.53125 76.714844 C 242.191406 76.714844 242.835938 76.582031 243.492188 76.320312 C 244.148438 76.058594 244.703125 75.695312 245.179688 75.21875 Z M 246.683594 76.714844 " fill-opacity="1" fill-rule="nonzero"/><path fill="#180f0a" d="M 268.507812 75.59375 L 261.074219 75.59375 L 259.78125 78.472656 L 257.449219 78.472656 L 263.609375 64.746094 L 266.003906 64.746094 L 272.164062 78.472656 L 269.832031 78.472656 Z M 264.800781 67.070312 L 261.902344 73.605469 L 267.710938 73.605469 Z M 264.800781 67.070312 " fill-opacity="1" fill-rule="nonzero"/><path fill="#180f0a" d="M 295.980469 78.480469 L 293.414062 78.480469 L 289.234375 73.734375 L 286.335938 73.734375 L 286.335938 78.480469 L 284.144531 78.480469 L 284.144531 64.738281 C 284.851562 64.738281 285.910156 64.738281 287.335938 64.746094 C 288.757812 64.757812 289.828125 64.757812 290.535156 64.757812 C 292.050781 64.757812 293.242188 65.199219 294.089844 66.078125 C 294.949219 66.957031 295.375 68.019531 295.375 69.25 C 295.375 70.332031 295.070312 71.269531 294.464844 72.070312 C 293.859375 72.855469 292.917969 73.351562 291.648438 73.53125 L 295.746094 78.097656 Z M 286.335938 66.757812 L 286.335938 71.734375 L 290.515625 71.734375 C 291.375 71.734375 292.03125 71.503906 292.476562 71.027344 C 292.917969 70.554688 293.140625 69.976562 293.140625 69.28125 C 293.140625 68.605469 292.917969 68.007812 292.476562 67.503906 C 292.03125 67 291.382812 66.746094 290.535156 66.746094 L 286.335938 66.746094 Z M 286.335938 66.757812 " fill-opacity="1" fill-rule="nonzero"/><path fill="#180f0a" d="M 318.492188 78.480469 L 308.351562 78.480469 L 308.351562 64.757812 L 318.429688 64.757812 L 318.429688 66.898438 L 310.542969 66.898438 L 310.542969 70.605469 L 318.117188 70.605469 L 318.117188 72.644531 L 310.542969 72.644531 L 310.542969 76.332031 L 318.480469 76.332031 L 318.480469 78.480469 Z M 318.492188 78.480469 " fill-opacity="1" fill-rule="nonzero"/></svg>