<svg xmlns="http://www.w3.org/2000/svg" xmlns:xlink="http://www.w3.org/1999/xlink" width="1080" zoomAndPan="magnify" viewBox="0 0 810 577.499988" height="770" preserveAspectRatio="xMidYMid meet" version="1.0"><path fill="#000000" d="M 55.429688 432.746094 L 101.726562 495.667969 L 75.386719 495.667969 L 42.722656 451.035156 L 11.355469 495.667969 L 7.621094 495.667969 L 7.621094 372.816406 L 28.71875 372.816406 L 28.71875 464.484375 L 93.121094 372.816406 L 97.59375 372.816406 Z M 55.429688 432.746094 " fill-opacity="1" fill-rule="nonzero"/><path fill="#000000" d="M 216.925781 495.667969 L 201.226562 460.011719 L 149.316406 460.011719 L 132.878906 495.667969 L 128.777344 495.667969 L 185.714844 371.675781 L 239.875 495.667969 Z M 151.015625 456.25 L 199.746094 456.25 L 176.027344 401.902344 Z M 151.015625 456.25 " fill-opacity="1" fill-rule="nonzero"/><path fill="#000000" d="M 297.796875 496.777344 L 243.636719 372.785156 L 266.800781 372.785156 L 307.667969 466.519531 L 350.601562 372.785156 L 354.703125 372.785156 Z M 297.796875 496.777344 " fill-opacity="1" fill-rule="nonzero"/><path fill="#000000" d="M 387.398438 372.785156 L 408.496094 372.785156 L 408.496094 495.636719 L 387.398438 495.636719 Z M 387.398438 372.785156 " fill-opacity="1" fill-rule="nonzero"/><path fill="#000000" d="M 533.226562 460.75 C 533.226562 467.476562 531.46875 473.582031 527.890625 479.042969 C 524.34375 484.53125 519.316406 488.851562 512.777344 492.027344 C 506.238281 495.203125 498.558594 496.777344 489.707031 496.777344 C 481.378906 496.777344 473.207031 495.019531 465.246094 491.441406 C 457.289062 487.894531 451.492188 482.773438 447.882812 476.050781 L 450.132812 473.058594 C 453.496094 479.535156 458.957031 484.46875 466.574219 487.894531 C 474.160156 491.316406 481.871094 493.042969 489.738281 493.042969 C 498.1875 493.042969 504.882812 491.039062 509.816406 487.0625 C 514.722656 483.082031 517.1875 477.46875 517.1875 470.25 C 517.1875 464.636719 514.660156 459.640625 509.632812 455.230469 C 504.605469 450.820312 496.707031 446.347656 486.003906 441.875 C 476.660156 437.894531 469.351562 434.378906 464.074219 431.328125 C 458.769531 428.273438 454.730469 424.726562 451.953125 420.6875 C 449.148438 416.644531 447.761719 411.773438 447.761719 406.035156 C 447.761719 398.816406 449.640625 392.617188 453.464844 387.46875 C 457.257812 382.316406 462.347656 378.367188 468.671875 375.714844 C 475.027344 373.03125 481.933594 371.707031 489.398438 371.707031 C 497.851562 371.707031 505.839844 373.648438 513.300781 377.503906 C 520.765625 381.359375 526.132812 386.605469 529.371094 393.203125 L 526.933594 396.195312 C 523.820312 389.71875 518.730469 384.660156 511.636719 380.988281 C 504.542969 377.320312 497.261719 375.46875 489.800781 375.46875 C 481.070312 375.46875 474.222656 377.226562 469.257812 380.710938 C 464.292969 384.199219 461.792969 389.285156 461.792969 396.011719 C 461.792969 399.867188 462.933594 403.199219 465.25 406.003906 C 467.5625 408.8125 470.675781 411.277344 474.59375 413.375 C 478.511719 415.503906 484.402344 418.339844 492.234375 421.949219 L 497.851562 424.570312 C 509.910156 430.0625 518.855469 435.460938 524.652344 440.828125 C 530.328125 446.132812 533.226562 452.761719 533.226562 460.75 Z M 533.226562 460.75 " fill-opacity="1" fill-rule="nonzero"/><path fill="#000000" d="M 642.105469 372.785156 L 663.203125 372.785156 L 663.203125 495.636719 L 642.105469 495.636719 L 642.105469 436.292969 L 590.011719 436.292969 L 590.011719 495.667969 L 568.914062 495.667969 L 568.914062 372.816406 L 590.011719 372.816406 L 590.011719 432.558594 L 642.105469 432.558594 Z M 642.105469 372.785156 " fill-opacity="1" fill-rule="nonzero"/><path fill="#000000" d="M 783.429688 495.667969 L 767.730469 460.011719 L 715.820312 460.011719 L 699.382812 495.667969 L 695.277344 495.667969 L 752.214844 371.675781 L 806.378906 495.667969 Z M 717.515625 456.25 L 766.25 456.25 L 742.53125 401.902344 Z M 717.515625 456.25 " fill-opacity="1" fill-rule="nonzero"/><path fill="#000000" d="M 201.164062 558.988281 L 178.464844 558.988281 L 174.515625 567.777344 L 167.390625 567.777344 L 186.207031 525.863281 L 193.515625 525.863281 L 212.332031 567.777344 L 205.207031 567.777344 Z M 189.847656 532.957031 L 180.992188 552.910156 L 198.730469 552.910156 Z M 189.847656 532.957031 " fill-opacity="1" fill-rule="nonzero"/><path fill="#000000" d="M 259.613281 544.398438 L 271.519531 525.894531 L 279.601562 525.894531 L 279.601562 526.203125 L 262.945312 550.628906 L 262.945312 567.808594 L 256.253906 567.808594 L 256.253906 550.628906 L 240.089844 526.203125 L 240.089844 525.894531 L 248.046875 525.894531 Z M 259.613281 544.398438 " fill-opacity="1" fill-rule="nonzero"/><path fill="#000000" d="M 351.3125 525.953125 L 351.3125 550.445312 C 351.3125 556.398438 349.585938 560.960938 346.160156 564.140625 C 342.738281 567.316406 338.359375 568.796875 333.050781 568.609375 C 328.117188 568.488281 323.984375 566.851562 320.683594 563.707031 C 317.382812 560.5625 315.75 556.152344 315.75 550.476562 L 315.75 525.984375 L 322.410156 525.984375 L 322.410156 550.476562 C 322.410156 554.175781 323.398438 557.074219 325.339844 559.171875 C 327.285156 561.238281 329.875 562.351562 333.050781 562.472656 C 336.476562 562.660156 339.28125 561.703125 341.441406 559.574219 C 343.601562 557.445312 344.679688 554.421875 344.679688 550.507812 L 344.679688 526.015625 L 351.3125 526.015625 Z M 351.3125 525.953125 " fill-opacity="1" fill-rule="nonzero"/><path fill="#000000" d="M 427.339844 562.410156 C 423.148438 566.574219 417.902344 568.640625 411.582031 568.640625 C 407.910156 568.640625 404.640625 568.054688 401.773438 566.851562 C 398.902344 565.648438 396.589844 564.046875 394.832031 562.011719 C 393.074219 559.976562 391.746094 557.691406 390.851562 555.195312 C 389.957031 552.664062 389.496094 550.011719 389.496094 547.175781 C 389.496094 544.335938 389.957031 541.625 390.882812 539.0625 C 391.808594 536.472656 393.136719 534.160156 394.894531 532.0625 C 396.652344 529.964844 398.964844 528.296875 401.863281 527.066406 C 404.765625 525.832031 408.003906 525.214844 411.609375 525.214844 C 417.59375 525.214844 422.714844 527.34375 426.941406 531.566406 L 422.4375 535.886719 C 419.539062 533.019531 415.898438 531.566406 411.609375 531.566406 C 406.613281 531.566406 402.789062 533.109375 400.105469 536.195312 C 397.421875 539.277344 396.128906 542.917969 396.160156 547.144531 C 396.1875 551.371094 397.515625 554.976562 400.105469 557.9375 C 402.695312 560.898438 406.523438 562.410156 411.609375 562.410156 C 413.617188 562.410156 415.589844 562.011719 417.59375 561.207031 C 419.597656 560.40625 421.296875 559.296875 422.746094 557.847656 Z M 427.339844 562.410156 " fill-opacity="1" fill-rule="nonzero"/><path fill="#000000" d="M 493.996094 558.988281 L 471.292969 558.988281 L 467.34375 567.777344 L 460.21875 567.777344 L 479.035156 525.863281 L 486.34375 525.863281 L 505.160156 567.777344 L 498.035156 567.777344 Z M 482.675781 532.957031 L 473.824219 552.910156 L 491.558594 552.910156 Z M 482.675781 532.957031 " fill-opacity="1" fill-rule="nonzero"/><path fill="#000000" d="M 577.886719 567.808594 L 570.054688 567.808594 L 557.285156 553.3125 L 548.433594 553.3125 L 548.433594 567.808594 L 541.738281 567.808594 L 541.738281 525.832031 C 543.898438 525.832031 547.136719 525.832031 551.488281 525.863281 C 555.835938 525.894531 559.105469 525.894531 561.265625 525.894531 C 565.890625 525.894531 569.53125 527.25 572.121094 529.933594 C 574.742188 532.617188 576.039062 535.855469 576.039062 539.617188 C 576.039062 542.917969 575.113281 545.789062 573.261719 548.222656 C 571.410156 550.628906 568.542969 552.140625 564.65625 552.695312 L 577.179688 566.636719 Z M 548.433594 532 L 548.433594 547.207031 L 561.203125 547.207031 C 563.824219 547.207031 565.828125 546.496094 567.1875 545.046875 C 568.542969 543.597656 569.222656 541.839844 569.222656 539.710938 C 569.222656 537.644531 568.542969 535.824219 567.1875 534.28125 C 565.828125 532.738281 563.855469 531.96875 561.265625 531.96875 L 548.433594 531.96875 Z M 548.433594 532 " fill-opacity="1" fill-rule="nonzero"/><path fill="#000000" d="M 646.640625 567.808594 L 615.671875 567.808594 L 615.671875 525.894531 L 646.453125 525.894531 L 646.453125 532.433594 L 622.363281 532.433594 L 622.363281 543.75 L 645.496094 543.75 L 645.496094 549.980469 L 622.363281 549.980469 L 622.363281 561.238281 L 646.609375 561.238281 L 646.609375 567.808594 Z M 646.640625 567.808594 " fill-opacity="1" fill-rule="nonzero"/><path fill="#000000" d="M 483.320312 124.308594 C 475.949219 136.402344 466.328125 146.023438 454.050781 153.550781 C 465.957031 160.707031 475.457031 170.175781 483.351562 182.757812 C 490.632812 170.761719 500.039062 161.292969 512.40625 153.519531 C 500.53125 146.269531 490.941406 136.648438 483.320312 124.308594 Z M 483.320312 124.308594 " fill-opacity="1" fill-rule="nonzero"/><path fill="#000000" d="M 407.015625 6.457031 C 325.867188 6.457031 259.859375 72.460938 259.859375 153.582031 C 259.859375 234.730469 325.867188 300.734375 407.015625 300.734375 C 488.132812 300.734375 554.140625 234.730469 554.140625 153.582031 C 554.140625 72.460938 488.132812 6.457031 407.015625 6.457031 Z M 356.402344 84.058594 L 356.402344 33.878906 L 358.3125 33.105469 C 371.515625 27.769531 385.488281 24.65625 399.828125 23.882812 L 403.097656 23.699219 L 403.097656 26.96875 C 403.066406 44.269531 396.960938 59.324219 384.929688 71.722656 C 378.175781 78.691406 369.941406 83.84375 360.472656 86.988281 L 356.402344 88.347656 Z M 400.074219 283.339844 C 385.671875 282.597656 371.605469 279.484375 358.34375 274.085938 L 356.433594 273.316406 L 356.433594 218.753906 L 360.503906 220.140625 C 370.035156 223.347656 378.085938 228.40625 385.085938 235.5625 C 396.746094 247.46875 402.882812 262.519531 403.34375 280.253906 L 403.4375 283.585938 Z M 455.039062 274.363281 C 445.015625 278.375 434.375 281.117188 423.453125 282.507812 L 419.753906 282.96875 L 419.96875 279.269531 C 421.972656 244.722656 393.96875 208.945312 358.808594 201.140625 C 354.210938 200.125 349.554688 199.597656 344.988281 199.597656 L 339.929688 199.597656 L 339.929688 265.019531 L 335.148438 261.839844 C 298.785156 237.660156 277.070312 197.195312 277.070312 153.582031 C 277.070312 109.96875 298.785156 69.5 335.148438 45.351562 L 339.929688 42.175781 L 339.929688 107.714844 L 341.164062 107.714844 C 347.085938 107.714844 353.039062 107.039062 358.808594 105.742188 C 398.441406 96.644531 422.4375 58.210938 419.96875 28.015625 L 419.660156 24.222656 L 423.425781 24.714844 C 434.25 26.105469 444.828125 28.820312 454.824219 32.765625 L 456.921875 33.597656 L 456.765625 35.851562 C 454.945312 64.257812 443.597656 89.210938 423.054688 110.03125 C 401.09375 132.328125 373.117188 144.113281 339.929688 145.128906 L 339.929688 161.136719 C 408.898438 169.3125 448.253906 206.324219 456.949219 271.15625 L 457.257812 273.53125 Z M 477.679688 262.644531 L 473.636719 265.265625 L 472.957031 260.484375 C 466.328125 214.402344 441.128906 180.320312 395.941406 156.234375 L 390.851562 153.519531 L 395.941406 150.804688 C 441.097656 126.625 466.296875 92.542969 472.929688 46.675781 L 473.605469 41.894531 L 477.648438 44.519531 C 514.78125 68.636719 536.960938 109.382812 536.960938 153.582031 C 536.960938 197.78125 514.8125 238.554688 477.679688 262.644531 Z M 477.679688 262.644531 " fill-opacity="1" fill-rule="nonzero"/></svg>